<?xml version="1.0" encoding="UTF-8"?>
<svg id="svg1" xmlns="http://www.w3.org/2000/svg" version="1.1" xmlns:inkscape="http://www.inkscape.org/namespaces/inkscape" xmlns:sodipodi="http://sodipodi.sourceforge.net/DTD/sodipodi-0.dtd" xmlns:svg="http://www.w3.org/2000/svg" viewBox="0 0 1280 640">
  <!-- Generator: Adobe Illustrator 30.3.0, SVG Export Plug-In . SVG Version: 2.1.3 Build 182)  -->
  <defs>
    <style>
      .st0 {
        fill: #fd0;
      }

      .st1 {
        fill: #606060;
      }

      .st2 {
        fill: #313232;
      }

      .st3 {
        fill: #e8533a;
      }

      .st4 {
        fill: #e9f7fe;
      }
    </style>
  </defs>
  <sodipodi:namedview id="namedview1" bordercolor="#000000" borderopacity="0.25" inkscape:current-layer="layer1" inkscape:cx="397.23361" inkscape:cy="560.70193" inkscape:deskcolor="#d1d1d1" inkscape:document-units="mm" inkscape:pagecheckerboard="0" inkscape:pageopacity="0.0" inkscape:showpageshadow="2" inkscape:window-height="2091" inkscape:window-maximized="1" inkscape:window-width="3758" inkscape:window-x="82" inkscape:window-y="32" inkscape:zoom="0.89619809" pagecolor="#ffffff"/>
  <g id="layer1" inkscape:groupmode="layer" inkscape:label="Layer 1">
    <g id="g2">
      <circle id="circle1" class="st4" cx="293.37" cy="297.42" r="179.09"/>
      <path id="path1" class="st0" d="M316.73,482.28c-47.8-7.81-83.63-33.7-111.43-65.47-10.27-11.74-18.65-17.22-18.85-2.59-.15,10.73,5.06,21.76-11.85,4.81-26.15-26.22-41.24-50.79-48.69-79.29-1.38-5.26-2.67-9.77-2.88-10.04-.21-.27-1.44-1.09-6.44,1.57-10.81,5.76-11.11,5.01-9.25-5.48,4.44-25.13,24.76-47.16,31.75-73.35l1.75-6.56-5.99-1.02c-4.37.25-6.72-1.14-6.72-1.69,0-3.89,24.02-24.38,32.93-38.83l12.43-15.43-.49-7.85c-3.46-55.97,38.55-91.8,68.62-46.07,3.2,4.87,7.87,5.08,9.04,4.73,9.15-2.73,37.04-7.25,56.03-4.44,37.49,5.53,39.48,10.73,59.91,31.91,18.28,13.35,34.59,35.8,37.28,49.27l1.31,6.56,30.46,17.35c8.1,4.61,49.6,22.43,44.83,38.33-1.24,4.12-4.81,9.82-5.22,12.93-2.5,18.7-13.17,30.93-21.3,33.51-1.15.37-2.21,4.77-3.61,7.69-6.7,13.94-22.71,27.62-42.07,30.68-18.57,2.94-20.88,5.76-27.58,9.3-17.85,9.42-34.29,26.72-35.31,54.91-.23,6.25,1.91,20.38,1.19,20.38-1.7,0-9.08-9.99-11.69-15.84l-2.23-4.98-2.42,5.61c-4.32,10.03-9.58,17.64-10.27,31.88-.45,9.07,1.65,18.24.83,18.14-.69-.08-2.52-.36-4.07-.61h0Z"/>
      <path id="path2" class="st3" d="M311.53,481.38c-44.8-8.13-82.86-28.8-109.83-59.64-9.99-11.42-10.2-11.39-10.2,1.57s.41,12.97-16.83-4.3c-25.92-25.97-40.58-49.67-48.39-78.26-3.52-12.91-2.54-12.41-13.06-6.64-4.52,2.48-8.47,4.51-8.78,4.51-1.3,0,2.71-19.58,6.43-31.38,6.23-19.79,20.88-50.16,28.53-59.16,1.58-1.85,1.18-1.97-6.49-1.97h-8.17l3.42-5.92c7.52-13.03,18.24-26.87,30.31-39.12l12.69-12.89-2.53-6.85c-21.09-57.19,56.36-98.02,81.9-43.17l3.57,7.68,6.05-.97c30.31-4.87,60.21-5.94,88.92,11.19,36.78,21.95,56.15,39.83,56.19,58.48l.02,8.46,34.97,17.47q44.96,22.46,40.15,38.32c-1.27,4.18-2.81,11.11-3.43,15.4-2.38,16.59-8.12,28.52-16.98,35.24-2.96,2.25-6.46,6.41-8.39,10-7.8,14.47-22.63,23.01-46.03,26.5-36.09,5.37-53.28,25.93-57.47,68.75-.72,7.37-1.62,13.4-2.01,13.4-1.23,0-9.22-11.35-11.37-16.16l-2.08-4.65-2.39,5.57c-4.82,11.23-6.92,21.17-7.58,35.83-.43,9.46-1.08,14.35-1.9,14.28-.69-.06-4.86-.76-9.27-1.56h0ZM264.54,384.66c-8.96-8.96-17.97-23.96-23.41-38.97-3.03-8.37-2.29-8.17-9.2-2.39-5.16,4.32-5.67,4.51-7.03,2.66-5.02-6.86-10.84-30.32-10.85-43.71,0-7.49.2-7.35-5.64-3.67-5.69,3.59-7.67,3.56-8.6-.15-1.56-6.2,1.07-29.73,4.82-43.29,1.22-4.39-2.24-1.04-6.26,6.06-7.56,13.37-9.71,23.06-9.71,43.81,0,21.96.22,22.47,7.66,17.63,2.96-1.92,5.53-3.3,5.71-3.06.18.24,1.42,5.01,2.76,10.59,2.63,11.03,11.52,30.11,17.07,36.67,3.96,4.67,5.95,4.09,9.53-2.82l2.26-4.36,2.32,3.28c7.11,10.04,19.32,20.84,28.77,25.44,5.55,2.71,5.51,2.02-.23-3.72h0ZM411.86,349.89c12.24-1.77,22.19-7.37,27.57-15.52,2.41-3.66,1.79-3.79-8.84-1.92-23.1,4.07-43.42.75-58.8-9.6-4.71-3.17-8.46-4.84-11.07-4.94-6.07-.22-5.87-3.76.58-10.49l5.22-5.45,3.02,3.52c14.75,17.19,46.85,22.44,68.96,11.3,9.21-4.64,13.62-18.21,6.82-21.03-15.59-6.46-20.37-31.58-7.13-37.43,7.44-3.29,6.54-4.11-17.68-16.09-23.26-11.51-26.49-13.59-28.25-18.22-.9-2.38-1.74-2.71-6.85-2.71-17.21,0-24.85,8.42-27.46,30.26-.93,7.81-3.9,15.18-10.81,26.88-18.07,30.59-15.45,57.89,6.66,69.44l6.05,3.16,22.15-.02c12.18-.01,25.62-.52,29.85-1.14h0ZM341.4,236.98c10.94-3.81,5.98-20.19-6.12-20.19-11.2,0-13.4,18.52-2.44,20.64,4.37.85,4.91.82,8.56-.46h0ZM205.32,183.76c5.29-10.13,12.44-17.27,21.8-21.77,7.89-3.79,8.33-4.21,7.65-7.05-3.4-14.25-20.37-23.75-31.77-17.79-14.34,7.49-16.94,26.3-6.28,45.51q4.73,8.53,8.6,1.1ZM361.93,163.02c-10.7-9.36-24.78-17.56-38.48-23.08-7.67-3.09-10.66-3.51-10.66-3.51,0,0,1.1-2.74,4.08-5.98,23.52-25.52,59.6-4.18,51.81,30.65-.86,3.82-2.07,6.17-2.07,6.17,0,0-1.97-1.86-4.68-4.24h0Z"/>
    </g>
  </g>
  <g>
    <path class="st2" d="M712.56,219.22h34.38v38.98c2.51-2.24,5.01-4.75,7.52-7.54,2.51-2.79,5.01-5.81,7.52-9.06,2.51-3.25,5-6.74,7.48-10.47,2.48-3.72,4.92-7.7,7.32-11.91h34.84c-4.95,10-9.99,19.1-15.1,27.3-5.11,8.2-10.12,15.25-15.02,21.13,5.84,9.74,11.43,19.9,16.78,30.47,5.35,10.57,10.31,21.28,14.9,32.11h-38.05c-1.67-3.54-3.31-6.98-4.9-10.31-1.59-3.33-3.24-6.64-4.94-9.92-1.7-3.28-3.45-6.57-5.25-9.88-1.8-3.31-3.72-6.71-5.76-10.2-1.3.94-2.56,1.81-3.75,2.62-1.2.81-2.4,1.58-3.6,2.3v35.39h-34.38v-111.02Z"/>
    <path class="st2" d="M817.8,257.27c5.31-3.07,11.16-5.39,17.54-6.95,6.38-1.56,13.06-2.34,20.04-2.34,6.46,0,12.13.69,17.03,2.07,4.89,1.38,8.98,3.45,12.27,6.21,3.28,2.76,5.75,6.24,7.42,10.43,1.67,4.19,2.5,9.1,2.5,14.73v19.06c0,2.97,1.28,4.45,3.83,4.45.88,0,1.64-.1,2.27-.31.62-.21,1.25-.52,1.88-.94l2.11,24.3c-2.61,1.3-5.35,2.27-8.24,2.89s-6.03.94-9.41.94c-4.48,0-8.22-.74-11.21-2.23-3-1.48-5.38-3.35-7.15-5.59-1.09,1.04-2.4,2.06-3.91,3.05-1.51.99-3.23,1.86-5.16,2.62-1.93.75-4.05,1.37-6.37,1.84-2.32.47-4.86.7-7.62.7-4.64,0-8.75-.65-12.34-1.95-3.59-1.3-6.64-3.09-9.14-5.35s-4.4-4.92-5.7-7.97c-1.3-3.05-1.95-6.34-1.95-9.88,0-4.06.83-7.7,2.5-10.9,1.67-3.2,4.04-5.94,7.11-8.2,3.07-2.27,6.8-4,11.17-5.2,4.38-1.2,9.3-1.8,14.77-1.8,1.93,0,3.67.07,5.23.2,1.56.13,3.02.33,4.38.59v-1.88c0-1.3-.23-2.43-.7-3.4-.47-.96-1.19-1.76-2.15-2.38-.96-.62-2.2-1.09-3.71-1.41-1.51-.31-3.28-.47-5.31-.47-4.79,0-9.43.66-13.91,1.99-4.48,1.33-8.65,3.32-12.5,5.98l-5.55-22.89ZM861.63,299.69c-.89-.26-1.76-.43-2.62-.51s-1.65-.12-2.38-.12c-1.41,0-2.61.16-3.59.47-.99.31-1.8.74-2.42,1.29s-1.08,1.21-1.37,1.99c-.29.78-.43,1.62-.43,2.5s.14,1.68.43,2.38c.29.7.7,1.3,1.25,1.8.55.5,1.21.87,1.99,1.13.78.26,1.64.39,2.58.39,1.35,0,2.58-.21,3.67-.62,1.09-.42,2.06-.99,2.89-1.72v-8.98Z"/>
    <path class="st2" d="M911.86,249.61h25.94l1.88,8.12c1.14-1.46,2.36-2.81,3.63-4.06,1.28-1.25,2.63-2.32,4.06-3.2,1.43-.88,2.98-1.57,4.65-2.07,1.67-.49,3.44-.74,5.31-.74,1.51,0,2.88.12,4.1.35,1.22.23,2.41.61,3.55,1.13l-2.11,28.75c-1.09-.42-2.2-.73-3.32-.94-1.12-.21-2.25-.31-3.4-.31s-2.24.13-3.28.39c-1.04.26-2.03.65-2.97,1.17-.94.52-1.82,1.13-2.66,1.84-.83.7-1.64,1.5-2.42,2.38v47.81h-32.97v-80.62Z"/>
    <path class="st2" d="M1053.42,330.24h-25.86l-1.48-5.94c-2.76,2.45-5.93,4.38-9.49,5.78-3.57,1.41-7.64,2.11-12.23,2.11s-8.86-.73-12.81-2.19c-3.96-1.46-7.4-3.64-10.31-6.56-2.92-2.92-5.21-6.6-6.88-11.05-1.67-4.45-2.5-9.65-2.5-15.59v-47.19h32.97v43.52c0,2.4.23,4.36.7,5.9.47,1.54,1.09,2.76,1.88,3.67.78.91,1.67,1.54,2.66,1.88.99.34,2,.51,3.05.51,1.3,0,2.54-.23,3.71-.7s2.38-1.22,3.63-2.27v-52.5h32.97v80.62Z"/>
  </g>
  <g>
    <path class="st1" d="M703.65,371.82c0,.68-.07,1.3-.11,1.69h-12.49c.4,3.64,2.45,5.18,4.75,5.18,1.58,0,2.84-.58,4.1-1.51l2.2,2.38c-1.66,1.58-3.64,2.48-6.52,2.48-4.43,0-8.17-3.56-8.17-9.83s3.38-9.86,8.28-9.86c5.36,0,7.96,4.36,7.96,9.47ZM699.91,370.45c-.18-2.59-1.4-4.75-4.46-4.75-2.48,0-4,1.73-4.32,4.75h8.78Z"/>
    <path class="st1" d="M733.93,381.64h-3.71v-10.69c0-3.82-1.19-5.18-3.64-5.18s-3.64,1.76-3.64,4.82v11.05h-3.71v-10.69c0-3.82-1.19-5.18-3.63-5.18s-3.64,1.76-3.64,4.82v11.05h-3.71v-18.9h3.71v1.8c.94-1.37,2.56-2.2,4.5-2.2,2.56,0,4.18.97,5.18,2.77,1.37-1.69,2.84-2.77,5.79-2.77,4.39,0,6.48,2.88,6.48,8.46v10.83Z"/>
    <path class="st1" d="M755.13,372.5c0,6.48-3.53,9.54-7.45,9.54-1.91,0-3.71-1.01-4.75-2.16v1.76h-3.67v-24.33l3.67-1.91v9.14c1.37-1.26,2.95-2.2,4.93-2.2,4.07,0,7.27,2.95,7.27,10.15ZM751.43,372.61c0-4.75-1.51-6.84-4.25-6.84-1.76,0-3.31,1.19-4.28,2.41v7.96c.83,1.12,2.56,2.48,4.43,2.48,2.66,0,4.1-2.02,4.1-6.01Z"/>
    <path class="st1" d="M775.11,371.82c0,.68-.07,1.3-.11,1.69h-12.49c.4,3.64,2.45,5.18,4.75,5.18,1.58,0,2.84-.58,4.1-1.51l2.2,2.38c-1.66,1.58-3.63,2.48-6.51,2.48-4.43,0-8.17-3.56-8.17-9.83s3.38-9.86,8.28-9.86c5.36,0,7.96,4.36,7.96,9.47ZM771.37,370.45c-.18-2.59-1.4-4.75-4.46-4.75-2.48,0-4,1.73-4.32,4.75h8.78Z"/>
    <path class="st1" d="M794.77,381.64h-3.67v-1.8c-1.37,1.26-2.95,2.2-4.93,2.2-4.07,0-7.27-2.95-7.27-10.15,0-6.48,3.53-9.54,7.45-9.54,1.91,0,3.71,1.01,4.75,2.16v-7.2l3.67-1.91v26.24ZM791.13,376.21v-7.96c-.83-1.12-2.56-2.48-4.43-2.48-2.66,0-4.1,2.02-4.1,6.01,0,4.75,1.51,6.84,4.25,6.84,1.76,0,3.31-1.19,4.28-2.41Z"/>
    <path class="st1" d="M815.29,381.64h-3.67v-1.8c-1.37,1.26-2.95,2.2-4.93,2.2-4.07,0-7.27-2.95-7.27-10.15,0-6.48,3.53-9.54,7.45-9.54,1.91,0,3.71,1.01,4.75,2.16v-7.2l3.67-1.91v26.24ZM811.65,376.21v-7.96c-.83-1.12-2.56-2.48-4.43-2.48-2.66,0-4.1,2.02-4.1,6.01,0,4.75,1.51,6.84,4.25,6.84,1.76,0,3.31-1.19,4.28-2.41Z"/>
    <path class="st1" d="M836.1,371.82c0,.68-.07,1.3-.11,1.69h-12.49c.4,3.64,2.45,5.18,4.75,5.18,1.58,0,2.84-.58,4.1-1.51l2.2,2.38c-1.66,1.58-3.63,2.48-6.51,2.48-4.43,0-8.17-3.56-8.17-9.83s3.38-9.86,8.28-9.86c5.36,0,7.96,4.36,7.96,9.47ZM832.35,370.45c-.18-2.59-1.4-4.75-4.46-4.75-2.48,0-4,1.73-4.32,4.75h8.78Z"/>
    <path class="st1" d="M855.75,381.64h-3.67v-1.8c-1.37,1.26-2.95,2.2-4.93,2.2-4.07,0-7.27-2.95-7.27-10.15,0-6.48,3.53-9.54,7.45-9.54,1.91,0,3.71,1.01,4.75,2.16v-7.2l3.67-1.91v26.24ZM852.12,376.21v-7.96c-.83-1.12-2.56-2.48-4.43-2.48-2.66,0-4.1,2.02-4.1,6.01,0,4.75,1.51,6.84,4.25,6.84,1.76,0,3.31-1.19,4.28-2.41Z"/>
    <path class="st1" d="M886.82,372.5c0,6.48-3.53,9.54-7.45,9.54-1.91,0-3.71-1.01-4.75-2.16v6.8l-3.67,1.91v-25.84h3.67v1.8c1.37-1.26,2.95-2.2,4.93-2.2,4.07,0,7.27,2.95,7.27,10.15ZM883.11,372.61c0-4.75-1.51-6.84-4.25-6.84-1.76,0-3.31,1.19-4.28,2.41v7.96c.83,1.12,2.56,2.48,4.43,2.48,2.66,0,4.1-2.02,4.1-6.01Z"/>
    <path class="st1" d="M907.41,372.1c0,6.26-3.67,9.93-8.53,9.93s-8.31-3.92-8.31-9.83,3.67-9.86,8.42-9.86,8.42,3.85,8.42,9.75ZM903.67,372.21c0-3.85-1.84-6.33-4.82-6.33-2.81,0-4.54,2.48-4.54,6.23,0,4.14,1.91,6.41,4.72,6.41s4.64-2.84,4.64-6.3Z"/>
    <path class="st1" d="M915.87,381.64h-3.71v-24.3l3.71-1.94v26.24Z"/>
    <path class="st1" d="M925.95,357.92c0,1.3-1.08,2.38-2.38,2.38s-2.41-1.08-2.41-2.38,1.08-2.41,2.41-2.41,2.38,1.08,2.38,2.41ZM925.41,381.64h-3.71v-18.9h3.71v18.9Z"/>
    <path class="st1" d="M945.14,365.55l-2.2,2.63c-1.55-1.58-2.92-2.3-4.61-2.3-2.7,0-4.43,2.41-4.43,6.26s1.58,6.37,4.54,6.37c1.76,0,2.81-.79,4.28-2.34l2.38,2.34c-1.48,1.87-3.35,3.53-6.77,3.53-4.61,0-8.17-3.89-8.17-9.79,0-6.26,3.67-9.9,8.28-9.9,2.77,0,4.93,1.12,6.7,3.2Z"/>
    <path class="st1" d="M965.33,362.75l-9.5,25.56h-3.92l2.74-7.02-6.95-18.54h4.07l3.1,9.25c.54,1.66,1.44,4.46,1.66,5.51.32-1.12,1.12-3.82,1.69-5.44l3.2-9.32h3.92Z"/>
    <path class="st1" d="M994.31,371.82c0,.68-.07,1.3-.11,1.69h-12.49c.4,3.64,2.45,5.18,4.75,5.18,1.58,0,2.84-.58,4.1-1.51l2.2,2.38c-1.66,1.58-3.63,2.48-6.51,2.48-4.43,0-8.17-3.56-8.17-9.83s3.38-9.86,8.28-9.86c5.36,0,7.96,4.36,7.96,9.47ZM990.57,370.45c-.18-2.59-1.4-4.75-4.46-4.75-2.48,0-4,1.73-4.32,4.75h8.78Z"/>
    <path class="st1" d="M1014.11,381.64h-3.71v-10.69c0-3.82-1.44-5.18-3.89-5.18s-3.89,1.76-3.89,4.82v11.05h-3.71v-18.9h3.71v1.8c.94-1.37,2.81-2.2,4.75-2.2,4.39,0,6.73,2.88,6.73,8.46v10.83Z"/>
    <path class="st1" d="M1034.49,379.84c0,5.76-2.09,8.53-8.93,8.75l-1.26-2.81c5.33-.25,6.48-1.69,6.48-5.62v-.32c-1.37,1.26-2.92,2.2-4.9,2.2-4.03,0-7.27-2.95-7.27-10.15,0-6.48,3.56-9.54,7.45-9.54,1.91,0,3.71,1.01,4.72,2.16v-1.76h3.71v17.1ZM1030.85,376.21v-7.96c-.83-1.12-2.56-2.48-4.43-2.48-2.66,0-4.1,2.02-4.1,6.01,0,4.75,1.51,6.84,4.25,6.84,1.76,0,3.31-1.19,4.28-2.41Z"/>
    <path class="st1" d="M1044.39,357.92c0,1.3-1.08,2.38-2.38,2.38s-2.41-1.08-2.41-2.38,1.08-2.41,2.41-2.41,2.38,1.08,2.38,2.41ZM1043.85,381.64h-3.71v-18.9h3.71v18.9Z"/>
    <path class="st1" d="M1064.69,381.64h-3.71v-10.69c0-3.82-1.44-5.18-3.89-5.18s-3.89,1.76-3.89,4.82v11.05h-3.71v-18.9h3.71v1.8c.94-1.37,2.81-2.2,4.75-2.2,4.39,0,6.73,2.88,6.73,8.46v10.83Z"/>
    <path class="st1" d="M1085.36,371.82c0,.68-.07,1.3-.11,1.69h-12.49c.4,3.64,2.45,5.18,4.75,5.18,1.58,0,2.84-.58,4.1-1.51l2.2,2.38c-1.66,1.58-3.63,2.48-6.51,2.48-4.43,0-8.17-3.56-8.17-9.83s3.38-9.86,8.28-9.86c5.36,0,7.96,4.36,7.96,9.47ZM1081.61,370.45c-.18-2.59-1.4-4.75-4.46-4.75-2.48,0-4,1.73-4.32,4.75h8.78Z"/>
  </g>
</svg>