<?xml version="1.0" encoding="UTF-8" standalone="no"?>
<!-- Created with Inkscape (http://www.inkscape.org/) -->

<svg
   width="1280"
   height="640"
   viewBox="0 0 338.66666 169.33333"
   version="1.1"
   id="svg1"
   inkscape:version="1.4.3 (1:1.4.3+202512261035+0d15f75042)"
   sodipodi:docname="karu-hero-1280px-640px.svg"
   xmlns:inkscape="http://www.inkscape.org/namespaces/inkscape"
   xmlns:sodipodi="http://sodipodi.sourceforge.net/DTD/sodipodi-0.dtd"
   xmlns="http://www.w3.org/2000/svg"
   xmlns:svg="http://www.w3.org/2000/svg">
  <sodipodi:namedview
     id="namedview1"
     pagecolor="#ffffff"
     bordercolor="#000000"
     borderopacity="0.25"
     inkscape:showpageshadow="2"
     inkscape:pageopacity="0.0"
     inkscape:pagecheckerboard="0"
     inkscape:deskcolor="#d1d1d1"
     inkscape:document-units="mm"
     inkscape:zoom="0.89619809"
     inkscape:cx="397.23361"
     inkscape:cy="560.70193"
     inkscape:window-width="3758"
     inkscape:window-height="2091"
     inkscape:window-x="82"
     inkscape:window-y="32"
     inkscape:window-maximized="1"
     inkscape:current-layer="layer1" />
  <defs
     id="defs1" />
  <g
     inkscape:label="Layer 1"
     inkscape:groupmode="layer"
     id="layer1">
    <g
       transform="matrix(1.1282012,0,0,1.1282012,-47.045931,-65.943625)"
       id="g2">
      <circle
         cx="110.5"
         cy="128.2"
         r="42"
         fill="#ffffff"
         id="circle1" />
      <path
         fill="#FF7A5C"
         d="m 115.97797,171.55253 c -11.21102,-1.83072 -19.613593,-7.90212 -26.131342,-15.35421 -2.409054,-2.7544 -4.374609,-4.03804 -4.421761,-0.60849 -0.0346,2.51688 1.185785,5.10329 -2.77871,1.12767 -6.131908,-6.1491 -9.670374,-11.91102 -11.419523,-18.59518 -0.322506,-1.23241 -0.62678,-2.29238 -0.676164,-2.35547 -0.04938,-0.0631 -0.338673,-0.2559 -1.509557,0.36797 -2.534389,1.35038 -2.605026,1.17544 -2.170257,-1.2863 1.040635,-5.89229 5.807033,-11.06024 7.44523,-17.20115 l 0.410367,-1.53829 -1.403761,-0.23966 c -1.025049,0.0579 -1.576248,-0.26822 -1.576248,-0.39682 0,-0.91113 5.632918,-5.71768 7.7232,-9.10551 l 2.914535,-3.61939 -0.113987,-1.84191 c -0.81236,-13.126838 9.04091,-21.528872 16.092262,-10.803765 0.750353,1.141284 1.846276,1.190421 2.119556,1.108977 2.14588,-0.639536 8.68553,-1.69955 13.14003,-1.042173 8.79284,1.297613 9.25826,2.517149 14.05027,7.4836 4.28677,3.130161 8.1114,8.394931 8.74309,11.555331 l 0.30749,1.53839 7.14306,4.06952 c 1.89875,1.08176 11.63147,5.25963 10.51385,8.98839 -0.28994,0.96731 -1.1275,2.30368 -1.22489,3.03128 -0.58686,4.38455 -3.08845,7.25388 -4.99458,7.85886 -0.26999,0.0857 -0.51804,1.11943 -0.84717,1.80394 -1.57183,3.269 -5.32506,6.47774 -9.86641,7.19617 -4.35438,0.68884 -4.89599,1.35123 -6.4674,2.18088 -4.18608,2.2101 -8.04119,6.26578 -8.28096,12.87655 -0.0532,1.46608 0.44682,4.77878 0.28019,4.77878 -0.39831,0 -2.1283,-2.34322 -2.74201,-3.71398 l -0.52236,-1.16674 -0.56719,1.31588 c -1.01366,2.35169 -2.24583,4.13694 -2.40965,7.47649 -0.10438,2.12789 0.38635,4.27806 0.19449,4.25441 -0.16073,-0.0198 -0.58989,-0.0846 -0.95369,-0.14405 z"
         id="path1"
         style="fill:#ffbd5c;fill-opacity:1" />
      <path
         fill="#e8533a"
         d="m 114.75914,171.34348 c -10.50684,-1.90757 -19.43237,-6.75401 -25.757795,-13.98615 -2.342629,-2.67843 -2.392127,-2.67082 -2.392127,0.36798 0,3.0176 0.09641,3.04222 -3.947099,-1.00781 -6.079846,-6.08964 -9.516649,-11.64857 -11.34724,-18.35383 -0.826458,-3.02723 -0.595929,-2.91012 -3.063092,-1.55606 -1.060586,0.58208 -1.987062,1.05833 -2.058837,1.05833 -0.304551,0 0.636288,-4.59167 1.50789,-7.35912 1.461529,-4.64053 4.896503,-11.76342 6.690514,-13.87369 0.36945,-0.43458 0.276006,-0.46302 -1.521302,-0.46302 h -1.91493 l 0.801571,-1.38906 c 1.76319,-3.05548 4.277149,-6.30072 7.107347,-9.1748 l 2.977073,-3.02322 -0.59251,-1.60698 C 76.30325,87.563484 94.466921,77.988241 100.45528,90.850966 l 0.83831,1.800648 1.41841,-0.227666 c 7.10911,-1.141067 14.12012,-1.394144 20.85413,2.6235 8.62646,5.146712 13.16726,9.341322 13.17715,13.714332 l 0.004,1.98437 8.20208,4.09723 c 10.54429,5.26724 10.54449,5.26743 9.41511,8.98569 -0.298,0.98107 -0.65949,2.60595 -0.80333,3.61084 -0.55701,3.89142 -1.90481,6.68924 -3.98157,8.26514 -0.69527,0.52759 -1.51389,1.50356 -1.96762,2.34583 -1.82848,3.39422 -5.30784,5.39703 -10.79536,6.21411 -8.46477,1.26037 -12.49434,6.08137 -13.47708,16.12404 -0.16908,1.72782 -0.38101,3.14149 -0.47095,3.14149 -0.2887,0 -2.16141,-2.66139 -2.66643,-3.78939 l -0.4886,-1.09133 -0.55968,1.30566 c -1.12928,2.63452 -1.62201,4.9644 -1.77724,8.40371 -0.10017,2.2197 -0.25235,3.36527 -0.44495,3.34956 -0.16099,-0.0131 -1.13884,-0.1775 -2.173,-0.36525 z m -11.02028,-22.68397 c -2.10227,-2.10227 -4.214215,-5.61878 -5.489248,-9.13992 -0.710461,-1.96202 -0.536919,-1.91689 -2.156583,-0.56083 -1.209273,1.01246 -1.330421,1.0584 -1.647551,0.6247 -1.177212,-1.60994 -2.542003,-7.10952 -2.543748,-10.25033 -9.76e-4,-1.75549 0.0463,-1.72478 -1.323762,-0.8599 -1.334388,0.84237 -1.798622,0.8343 -2.01681,-0.035 -0.364882,-1.4538 0.250202,-6.97227 1.131468,-10.15142 0.285081,-1.02843 -0.526007,-0.24339 -1.467187,1.42006 -1.773824,3.13508 -2.277679,5.40782 -2.277679,10.27393 0,5.15051 0.05197,5.27008 1.79713,4.13487 0.69359,-0.45117 1.296231,-0.77419 1.339204,-0.71782 0.04297,0.0564 0.333942,1.17406 0.646601,2.48375 0.617493,2.5866 2.70152,7.06223 4.004009,8.59896 0.929214,1.09632 1.39474,0.95845 2.235729,-0.66209 l 0.530305,-1.02187 0.544344,0.76882 c 1.667578,2.35526 4.531238,4.88792 6.746838,5.96698 1.30268,0.63444 1.29287,0.47307 -0.0531,-0.87286 z m 34.55039,-8.15475 c 2.87014,-0.41496 5.20505,-1.72909 6.4661,-3.63926 0.56635,-0.85788 0.41968,-0.88981 -2.07259,-0.45121 -5.418,0.95349 -10.18165,0.17568 -13.78877,-2.25143 -1.10463,-0.74326 -1.98519,-1.1359 -2.59727,-1.15811 -1.42332,-0.0516 -1.3777,-0.88175 0.13517,-2.46001 l 1.22481,-1.27776 0.70907,0.82636 c 3.45839,4.03042 10.98669,5.26362 16.17327,2.64933 2.1605,-1.089 3.19322,-4.27155 1.60021,-4.9314 -3.65531,-1.51408 -4.77696,-7.40513 -1.67148,-8.77883 1.74438,-0.77163 1.53333,-0.96373 -4.14686,-3.77456 -5.45597,-2.69988 -6.21326,-3.18822 -6.62552,-4.27255 -0.21224,-0.55823 -0.40882,-0.63605 -1.60674,-0.63605 -4.0356,0 -5.82831,1.97556 -6.44075,7.09768 -0.21891,1.83084 -0.91448,3.56056 -2.53532,6.3047 -4.2371,7.17355 -3.62312,13.5752 1.56177,16.28382 l 1.41821,0.74088 5.19531,-0.005 c 2.85742,-0.003 6.00804,-0.12275 7.00138,-0.26636 z M 121.7649,114.02561 c 2.56556,-0.89435 1.40192,-4.73467 -1.43463,-4.73467 -2.62762,0 -3.14174,4.34434 -0.57296,4.84154 1.02431,0.19826 1.15175,0.19148 2.00759,-0.10687 z M 89.850821,101.54618 c 1.241472,-2.376158 2.917608,-4.049836 5.113541,-5.106037 1.849428,-0.889539 1.954432,-0.986278 1.795077,-1.653774 -0.797914,-3.342258 -4.776177,-5.569765 -7.451381,-4.172173 -3.363547,1.757199 -3.972414,6.167573 -1.473457,10.673104 1.10923,1.9999 1.106759,1.99958 2.01622,0.25888 z m 36.729299,-4.865464 c -2.50883,-2.195956 -5.81231,-4.118868 -9.02408,-5.41376 -1.79789,-0.724857 -2.49899,-0.823849 -2.49899,-0.823849 0,0 0.25693,-0.64181 0.95753,-1.401865 5.51657,-5.984769 13.97729,-0.97951 12.14958,7.187554 -0.20064,0.896554 -0.48576,1.445866 -0.48576,1.445866 0,0 -0.46187,-0.436898 -1.09828,-0.993946 z"
         id="path2" />
    </g>
  </g>
</svg>
